<mxfile host="89542747-594e-4ecd-8991-7beb57e7ea2d" modified="2020-08-19T15:17:05.750Z" agent="5.0 (Macintosh; Intel Mac OS X 10_15_6) AppleWebKit/537.36 (KHTML, like Gecko) Code/1.48.0 Chrome/78.0.3904.130 Electron/7.3.2 Safari/537.36" etag="TBYHFh9qpr0tReoIVvyQ" version="13.1.3">
    <diagram id="6hGFLwfOUW9BJ-s0fimq" name="Page-1">
        <mxGraphModel dx="2622" dy="979" grid="0" gridSize="10" guides="1" tooltips="1" connect="1" arrows="1" fold="1" page="1" pageScale="1" pageWidth="1169" pageHeight="827" background="#ffffff" math="0" shadow="0" extFonts="Roboto^https://fonts.googleapis.com/css?family=Roboto">
            <root>
                <mxCell id="0"/>
                <mxCell id="1" parent="0"/>
                <mxCell id="2" value="Database" style="shape=datastore;whiteSpace=wrap;html=1;labelPosition=center;verticalLabelPosition=bottom;align=center;verticalAlign=top;labelBackgroundColor=none;labelBorderColor=none;fontColor=#000000;fillColor=#FFFFFF;strokeColor=#1A1A1A;fontFamily=Roboto;FType=g;fontSize=13;" parent="1" vertex="1">
                    <mxGeometry x="-230" y="176" width="170" height="374" as="geometry"/>
                </mxCell>
                <mxCell id="93" value="&lt;span style=&quot;color: rgb(0 , 0 , 0) ; font-size: 13px&quot;&gt;events_by_*&lt;/span&gt;" style="rounded=0;whiteSpace=wrap;html=1;labelBackgroundColor=none;fontFamily=Roboto;fontSize=11;fontColor=#1A1A1A;fillColor=#FFFFFF;strokeColor=#1A1A1A;" vertex="1" parent="1">
                    <mxGeometry x="-188" y="270" width="110" height="60" as="geometry"/>
                </mxCell>
                <mxCell id="92" value="" style="rounded=0;whiteSpace=wrap;html=1;labelBackgroundColor=none;fontFamily=Roboto;fontSize=11;fontColor=#1A1A1A;fillColor=#FFFFFF;strokeColor=#1A1A1A;" vertex="1" parent="1">
                    <mxGeometry x="-194" y="276" width="110" height="60" as="geometry"/>
                </mxCell>
                <mxCell id="42" value="" style="rounded=0;whiteSpace=wrap;html=1;fontColor=#1A1A1A;labelBackgroundColor=none;labelBorderColor=none;fillColor=#FFFFFF;strokeColor=#1A1A1A;fontFamily=Roboto;FType=g;fontSize=13;verticalAlign=bottom;" parent="1" vertex="1">
                    <mxGeometry x="-575" y="251.5" width="128" height="225.5" as="geometry"/>
                </mxCell>
                <mxCell id="6" style="edgeStyle=orthogonalEdgeStyle;rounded=0;orthogonalLoop=1;jettySize=auto;html=1;fontColor=#1A1A1A;labelBackgroundColor=#FFFFFF;labelBorderColor=none;strokeColor=#1A1A1A;strokeWidth=2;fontFamily=Roboto;fontSize=13;exitX=1;exitY=0.5;exitDx=-2.7;exitDy=0;entryX=0;entryY=0.5;entryDx=0;entryDy=0;exitPerimeter=0;" parent="1" source="3" target="5" edge="1">
                    <mxGeometry relative="1" as="geometry">
                        <mxPoint x="-364" y="480" as="targetPoint"/>
                    </mxGeometry>
                </mxCell>
                <mxCell id="3" value="events" style="strokeWidth=1;outlineConnect=0;dashed=0;align=center;html=1;fontSize=13;shape=mxgraph.eip.messageChannel;verticalLabelPosition=bottom;labelBackgroundColor=none;verticalAlign=middle;fontColor=#1A1A1A;labelBorderColor=none;fillColor=#FFFFFF;fontFamily=Roboto;" parent="1" vertex="1">
                    <mxGeometry x="-557" y="291" width="100" height="28" as="geometry"/>
                </mxCell>
                <mxCell id="7" style="edgeStyle=orthogonalEdgeStyle;rounded=0;orthogonalLoop=1;jettySize=auto;html=1;entryX=0;entryY=0.5;entryDx=0;entryDy=0;fontColor=#1A1A1A;labelBackgroundColor=#FFFFFF;labelBorderColor=none;strokeColor=#1A1A1A;strokeWidth=2;fontFamily=Roboto;fontSize=13;exitX=1;exitY=0.65;exitDx=0;exitDy=0;exitPerimeter=0;" parent="1" source="5" target="87" edge="1">
                    <mxGeometry relative="1" as="geometry">
                        <mxPoint x="-214" y="291.7500000000002" as="targetPoint"/>
                    </mxGeometry>
                </mxCell>
                <mxCell id="5" value="processor " style="rounded=0;whiteSpace=wrap;html=1;fontColor=#1A1A1A;labelBackgroundColor=none;labelBorderColor=none;fillColor=#FFFFFF;strokeColor=#1A1A1A;fontFamily=Roboto;FType=g;fontSize=13;verticalAlign=bottom;" parent="1" vertex="1">
                    <mxGeometry x="-404" y="274" width="120" height="60" as="geometry"/>
                </mxCell>
                <mxCell id="10" value="publish&lt;br style=&quot;font-size: 11px;&quot;&gt;events" style="edgeStyle=orthogonalEdgeStyle;rounded=0;orthogonalLoop=1;jettySize=auto;html=1;exitX=1;exitY=0.169;exitDx=0;exitDy=0;exitPerimeter=0;fontColor=#1A1A1A;labelBackgroundColor=#FFFFFF;labelBorderColor=none;strokeColor=#1A1A1A;strokeWidth=2;fontFamily=Roboto;fontSize=11;entryX=0;entryY=0.5;entryDx=2.7;entryDy=0;entryPerimeter=0;" parent="1" source="9" target="3" edge="1">
                    <mxGeometry x="-0.1342" y="21" relative="1" as="geometry">
                        <mxPoint x="-705" y="299" as="sourcePoint"/>
                        <mxPoint as="offset"/>
                        <Array as="points">
                            <mxPoint x="-666" y="305"/>
                        </Array>
                    </mxGeometry>
                </mxCell>
                <mxCell id="11" style="edgeStyle=orthogonalEdgeStyle;rounded=0;orthogonalLoop=1;jettySize=auto;html=1;entryX=-0.006;entryY=0.902;entryDx=0;entryDy=0;exitX=1.017;exitY=0.884;exitDx=0;exitDy=0;exitPerimeter=0;fontColor=#1A1A1A;labelBackgroundColor=#FFFFFF;labelBorderColor=none;strokeColor=#1A1A1A;strokeWidth=2;fontFamily=Roboto;fontSize=13;entryPerimeter=0;" parent="1" source="9" target="2" edge="1">
                    <mxGeometry relative="1" as="geometry"/>
                </mxCell>
                <mxCell id="12" value="select events, aggregations, predictions" style="edgeLabel;html=1;align=center;verticalAlign=middle;resizable=0;points=[];fontColor=#1A1A1A;labelBackgroundColor=#FFFFFF;labelBorderColor=none;fontFamily=Roboto;fontSize=13;" parent="11" vertex="1" connectable="0">
                    <mxGeometry x="-0.1447" y="-4" relative="1" as="geometry">
                        <mxPoint x="0.96" y="10.4" as="offset"/>
                    </mxGeometry>
                </mxCell>
                <mxCell id="76" style="edgeStyle=orthogonalEdgeStyle;rounded=0;orthogonalLoop=1;jettySize=auto;html=1;exitX=1.01;exitY=0.398;exitDx=0;exitDy=0;strokeColor=#333333;exitPerimeter=0;strokeWidth=2;" edge="1" parent="1" source="9" target="60">
                    <mxGeometry relative="1" as="geometry"/>
                </mxCell>
                <mxCell id="77" value="publish&lt;br&gt;analytic&lt;br&gt;request" style="edgeLabel;html=1;align=center;verticalAlign=middle;resizable=0;points=[];fontFamily=Roboto;fontColor=#1A1A1A;labelBackgroundColor=none;" vertex="1" connectable="0" parent="76">
                    <mxGeometry x="-0.6153" y="1" relative="1" as="geometry">
                        <mxPoint x="-3.91" y="25.39" as="offset"/>
                    </mxGeometry>
                </mxCell>
                <mxCell id="9" value="rest&amp;nbsp;services" style="rounded=0;whiteSpace=wrap;html=1;fontColor=#1A1A1A;labelBackgroundColor=none;labelBorderColor=none;fillColor=#FFFFFF;strokeColor=#1A1A1A;fontFamily=Roboto;FType=g;fontSize=13;verticalAlign=bottom;" parent="1" vertex="1">
                    <mxGeometry x="-786" y="254" width="120" height="293" as="geometry"/>
                </mxCell>
                <mxCell id="21" style="edgeStyle=orthogonalEdgeStyle;rounded=0;orthogonalLoop=1;jettySize=auto;html=1;entryX=0.5;entryY=0;entryDx=0;entryDy=0;fontColor=#1A1A1A;labelBackgroundColor=#FFFFFF;labelBorderColor=none;strokeColor=#1A1A1A;strokeWidth=2;fontFamily=Roboto;fontSize=13;exitX=0.5;exitY=1;exitDx=0;exitDy=0;" parent="1" target="20" edge="1">
                    <mxGeometry relative="1" as="geometry">
                        <Array as="points">
                            <mxPoint x="-151" y="360"/>
                            <mxPoint x="-339" y="360"/>
                        </Array>
                        <mxPoint x="-149" y="324" as="sourcePoint"/>
                    </mxGeometry>
                </mxCell>
                <mxCell id="22" style="edgeStyle=orthogonalEdgeStyle;rounded=0;orthogonalLoop=1;jettySize=auto;html=1;entryX=0;entryY=0.5;entryDx=0;entryDy=0;fontColor=#1A1A1A;exitX=1;exitY=0.75;exitDx=0;exitDy=0;labelBackgroundColor=#FFFFFF;labelBorderColor=none;strokeColor=#1A1A1A;strokeWidth=2;fontFamily=Roboto;fontSize=13;" parent="1" source="36" target="94" edge="1">
                    <mxGeometry relative="1" as="geometry">
                        <mxPoint x="-206" y="423.5" as="targetPoint"/>
                    </mxGeometry>
                </mxCell>
                <mxCell id="20" value="analytics" style="rounded=0;whiteSpace=wrap;html=1;fontColor=#000000;labelBackgroundColor=none;labelBorderColor=none;fillColor=#FFFFFF;strokeColor=#1A1A1A;fontFamily=Roboto;FType=g;fontSize=13;verticalAlign=bottom;" parent="1" vertex="1">
                    <mxGeometry x="-399" y="393" width="120" height="60" as="geometry"/>
                </mxCell>
                <mxCell id="25" value="" style="endArrow=classic;html=1;labelBackgroundColor=#333333;strokeColor=#1A1A1A;strokeWidth=2;fontFamily=Roboto;fontSize=13;fontColor=#000000;" parent="1" edge="1">
                    <mxGeometry width="50" height="50" relative="1" as="geometry">
                        <mxPoint x="-909" y="281" as="sourcePoint"/>
                        <mxPoint x="-786" y="280.5" as="targetPoint"/>
                    </mxGeometry>
                </mxCell>
                <mxCell id="26" value="POST Event" style="text;html=1;align=center;verticalAlign=middle;resizable=0;points=[];autosize=1;fontSize=13;fontFamily=Roboto;fontColor=#000000;" parent="1" vertex="1">
                    <mxGeometry x="-883.5" y="249" width="78" height="20" as="geometry"/>
                </mxCell>
                <mxCell id="28" value="" style="endArrow=classic;html=1;labelBackgroundColor=#333333;strokeColor=#1A1A1A;strokeWidth=2;fontFamily=Roboto;fontSize=13;fontColor=#000000;" parent="1" edge="1">
                    <mxGeometry width="50" height="50" relative="1" as="geometry">
                        <mxPoint x="-909" y="438" as="sourcePoint"/>
                        <mxPoint x="-788" y="438" as="targetPoint"/>
                    </mxGeometry>
                </mxCell>
                <mxCell id="30" value="GET Events" style="text;html=1;align=center;verticalAlign=middle;resizable=0;points=[];autosize=1;fontSize=13;fontFamily=Roboto;fontColor=#000000;" parent="1" vertex="1">
                    <mxGeometry x="-881.5" y="408" width="76" height="20" as="geometry"/>
                </mxCell>
                <mxCell id="31" value="" style="endArrow=classic;html=1;labelBackgroundColor=#333333;strokeColor=#1A1A1A;strokeWidth=2;fontFamily=Roboto;fontSize=13;fontColor=#000000;exitX=1.008;exitY=0.981;exitDx=0;exitDy=0;exitPerimeter=0;" parent="1" edge="1">
                    <mxGeometry width="50" height="50" relative="1" as="geometry">
                        <mxPoint x="-910.04" y="478.933" as="sourcePoint"/>
                        <mxPoint x="-786" y="479" as="targetPoint"/>
                    </mxGeometry>
                </mxCell>
                <mxCell id="32" value="GET Aggregations" style="text;html=1;align=center;verticalAlign=middle;resizable=0;points=[];autosize=1;fontSize=13;fontFamily=Roboto;fontColor=#000000;" parent="1" vertex="1">
                    <mxGeometry x="-901" y="450" width="115" height="20" as="geometry"/>
                </mxCell>
                <mxCell id="36" value="&lt;meta http-equiv=&quot;content-type&quot; content=&quot;text/html; charset=utf-8&quot;&gt;&lt;img src=&quot;https://upload.wikimedia.org/wikipedia/commons/thumb/f/f3/Apache_Spark_logo.svg/640px-Apache_Spark_logo.svg.png&quot; alt=&quot;https://upload.wikimedia.org/wikipedia/commons/thumb/f/f3/Apache_Spark_logo.svg/640px-Apache_Spark_logo.svg.png&quot; class=&quot;transparent&quot;&gt;" style="text;whiteSpace=wrap;html=1;fontSize=13;fontFamily=Roboto;fontColor=#000000;" parent="1" vertex="1">
                    <mxGeometry x="-334" y="393" width="52" height="41" as="geometry"/>
                </mxCell>
                <mxCell id="37" value="&lt;meta http-equiv=&quot;content-type&quot; content=&quot;text/html; charset=utf-8&quot;&gt;&lt;img src=&quot;https://upload.wikimedia.org/wikipedia/commons/thumb/5/5e/Cassandra_logo.svg/640px-Cassandra_logo.svg.png&quot; alt=&quot;https://upload.wikimedia.org/wikipedia/commons/thumb/5/5e/Cassandra_logo.svg/640px-Cassandra_logo.svg.png&quot; class=&quot;transparent&quot;&gt;" style="text;whiteSpace=wrap;html=1;fontSize=13;fontFamily=Roboto;fontColor=#1A1A1A;" parent="1" vertex="1">
                    <mxGeometry x="-190" y="182" width="78" height="47" as="geometry"/>
                </mxCell>
                <mxCell id="40" value="&lt;meta http-equiv=&quot;content-type&quot; content=&quot;text/html; charset=utf-8&quot;&gt;&lt;img alt=&quot;Home - Apache Camel&quot; class=&quot;n3VNCb&quot; src=&quot;https://camel.apache.org/_/img/quarkus.svg&quot; data-noaft=&quot;1&quot; jsname=&quot;HiaYvf&quot; jsaction=&quot;load:XAeZkd,gvK6lb;&quot; style=&quot;width: 400px; height: 400px; margin: 0px;&quot;&gt;" style="text;whiteSpace=wrap;html=1;fontSize=13;fontFamily=Roboto;fontColor=#1A1A1A;" parent="1" vertex="1">
                    <mxGeometry x="-328" y="86" width="30" height="146" as="geometry"/>
                </mxCell>
                <mxCell id="41" value="&lt;meta http-equiv=&quot;content-type&quot; content=&quot;text/html; charset=utf-8&quot;&gt;&lt;img alt=&quot;Home - Apache Camel&quot; class=&quot;n3VNCb&quot; src=&quot;https://camel.apache.org/_/img/quarkus.svg&quot; data-noaft=&quot;1&quot; jsname=&quot;HiaYvf&quot; jsaction=&quot;load:XAeZkd,gvK6lb;&quot; style=&quot;width: 400px; height: 400px; margin: 0px;&quot;&gt;" style="text;whiteSpace=wrap;html=1;fontSize=13;fontFamily=Roboto;fontColor=#1A1A1A;" parent="1" vertex="1">
                    <mxGeometry x="-700" y="66" width="30" height="146" as="geometry"/>
                </mxCell>
                <mxCell id="52" value="" style="shape=image;verticalLabelPosition=bottom;labelBackgroundColor=#ffffff;verticalAlign=top;aspect=fixed;imageAspect=0;image=data:image/jpeg,/9j/4AAQSkZJRgABAQEAYABgAAD/4RYARXhpZgAASUkqAAgAAAAHAA4BAgA6AAAAYgAAABoBBQABAAAAnAAAABsBBQABAAAApAAAACgBAwABAAAAAgAAADEBAgANAAAArAAAADIBAgAUAAAAugAAAGmHBAABAAAAzgAAAC4BAABDUkVBVE9SOiBnZC1qcGVnIHYxLjAgKHVzaW5nIElKRyBKUEVHIHY2MiksIHF1YWxpdHkgPSA3MAoAYAAAAAEAAABgAAAAAQAAAEdJTVAgMi4xMC4xNAAAMjAyMDowODoxMiAxNTozOTo0OAACAIaSBwBBAAAA7AAAAAGgAwABAAAAAQAAAAAAAAAAAAAAAAAAAENSRUFUT1I6IGdkLWpwZWcgdjEuMCAodXNpbmcgSUpHIEpQRUcgdjYyKSwgcXVhbGl0eSA9IDcwCgAIAAABBAABAAAAAAEAAAEBBAABAAAAcwAAAAIBAwADAAAAlAEAAAMBAwABAAAABgAAAAYBAwABAAAABgAAABUBAwABAAAAAwAAAAECBAABAAAAmgEAAAICBAABAAAAXhQAAAAAAAAIAAgACAD/2P/gABBKRklGAAEBAAABAAEAAP/bAEMACAYGBwYFCAcHBwkJCAoMFA0MCwsMGRITDxQdGh8eHRocHCAkLicgIiwjHBwoNyksMDE0NDQfJzk9ODI8LjM0Mv/bAEMBCQkJDAsMGA0NGDIhHCEyMjIyMjIyMjIyMjIyMjIyMjIyMjIyMjIyMjIyMjIyMjIyMjIyMjIyMjIyMjIyMjIyMv/AABEIAHMBAAMBIgACEQEDEQH/xAAfAAABBQEBAQEBAQAAAAAAAAAAAQIDBAUGBwgJCgv/xAC1EAACAQMDAgQDBQUEBAAAAX0BAgMABBEFEiExQQYTUWEHInEUMoGRoQgjQrHBFVLR8CQzYnKCCQoWFxgZGiUmJygpKjQ1Njc4OTpDREVGR0hJSlNUVVZXWFlaY2RlZmdoaWpzdHV2d3h5eoOEhYaHiImKkpOUlZaXmJmaoqOkpaanqKmqsrO0tba3uLm6wsPExcbHyMnK0tPU1dbX2Nna4eLj5OXm5+jp6vHy8/T19vf4+fr/xAAfAQADAQEBAQEBAQEBAAAAAAAAAQIDBAUGBwgJCgv/xAC1EQACAQIEBAMEBwUEBAABAncAAQIDEQQFITEGEkFRB2FxEyIygQgUQpGhscEJIzNS8BVictEKFiQ04SXxFxgZGiYnKCkqNTY3ODk6Q0RFRkdISUpTVFVWV1hZWmNkZWZnaGlqc3R1dnd4eXqCg4SFhoeIiYqSk5SVlpeYmZqio6Slpqeoqaqys7S1tre4ubrCw8TFxsfIycrS09TV1tfY2dri4+Tl5ufo6ery8/T19vf4+fr/2gAMAwEAAhEDEQA/APfqKKKAGSyLDG0jkKijLE9hXmvib43+GvD90bWMT3sqkq32YI4UjsfnH+RWL8ePGU+kaXFotnK0ct4G3uuMhRtyPbIavMfh78LL3xyj31xM0Fln/W7vmc5IOMqQeQaAPWdF+P3hzUrxbe5t7u03HAklVFUfjvr1SxvrbUrSO6tJVlgkUMjqcggjNfNfjf4H3Ph3S2v9KuZLuOPmRHOW6gcAKPWrHwK8b3FrrieHbuZnguc+SDj5CqMx569hQB9KUUUUAFFFFABRRRQAUUUUAFFFFABRRRQAUUUUAFFFFABRRRQAUUUUAFFFFABRRRQAUUUUAFFFFAHzV+0RazJ4jsbkq3lSK+044GFjFd58C9f0648Ewaas0KXduzb4y43fM7kcden866v4geCoPGnh+WzbCXKqTDJjo3Udx3Ar5e1fw54q8CX8mFvrdFb/AI+bfeqEZ4ywwKAPqXx5r+maN4Zu5L25hUsm1UZxlicDgd+tfMfwktJ7r4laT5SOQjSFmVSQv7p+tZttF4r8aXKQK2o36kgZYySRr9eoHT9K+ivhV8NV8HWX228CtqU6qXIz8nB4HP8AtEdBQB6dTHljjUs7qoHdjgVS1rV7bQ9Kn1C7cJFEuSTXyr4r+KPiTxdqPlWMtxbRMf3cNq7bzwe64J79qAPrCPUrGV9kd5bu391ZVJ/nVnIr4pdvG+lr9rmGv2yLyZJRMi/iT9K9h+FHxbudTvo9E1tlMrjEU27qdwABGPc9+1AHu1FIp3KDS0AFFFFABRRRQAUUUUAFFFFABRRRQAUUUUAFFFFABRRRQAUUUUAFFFFABRRRQAV518ZHtD8P79WeEy5TAJG77wrH+KnxXXwyJNJ0lg+osuGchsR5Axzxzz2Pavnq+1bxD4puHa4mvb9ixOwbpAue2Of8igD3L9nt7VdEvPMeFZcrjcQD9569vGMcGvhmBtd8PyfaIkvrBs/f2NH+v41674B+OTWUIs/E8jOirhbjDM3APXqTnA7d6AOs/aC1Ce08G20MJIS4uPLkx3Xax/oK5D9n3QNPv7i+1C6ijlmiJRFdQcY2nPP+8ax/iH8R7n4gldK0nTnktY33qfLLOTg8j04Pp61zHg7xfqvw91tn8l1VuJoJAQSPpke1AH19faVY6hZvbXNvFJEwwQyA18a60D4b8fXJ085NrcB4tvqQDj9a9U1n9oZbnS5IdM02eG6ZSBJLggcH0OfSuB+H3hrUPGfjWG6mhaS383zriRhlSMjI5Pv79KAPrnTnMmm2zt1Mak/lVmo4IxFBHGOiKFH4VJQBz3jDxdaeDtKGo3sZaHODgnjkDsD61R8FfEHT/HBuPsETIsABYsTznPqB6VzHx+/5EFv99f8A0NK5r9nH/Vat9E/m1AHvdFRT3EVtEZJnCIOpNVE1vTpXCJdIzHoBmgDQopu4bSTwKyNQ8WaHpTFb2/SMj0Vm/kDQBs0Vj6b4o0bVjixvklPptZf5gVbm1ewt5THNcojgZwaALtcv4u8d6P4NthLqM3zt9yMAkn8gcdDW+9/bJafamlUQcHf256fzr5R+MGpDVviK6LPvhQCJTk4A3t/jQB7T4M+L9v4z8QHTbbTZIFAz5jyA569Bj2rS8X/FPSvBuppZahC5d1LKQTzj6KaqfDfw34a0fSbCazSA6jJErPIEG8nHrjP6968o/aD/AORus/8Ark38xQB9EeHNdh8R6HbarboUhuFLKCe2SPQela1cT8Jv+SaaL/1xP/oRrrLnUbSzYC4mWMnpk0AWqKqW2pWl45W3mWQjrirEs0cKF5HCqOpJoAfRXOXPjvw1ZzmGfU0WQHGPKc/yWtWy1ex1CHzbS4SVPUZH6GgC9RWeuuaa7BVu4yx6DmtAdKACs7X9QGk+H7/UGOBbW7y5/wB1Sf6Vo1heM7JtR8F6zZp9+azljX6lCP60AfHF3NceJfFzfvC0t9diNGP+0+F/mK+svBPgHSPC+kwLDaxtcOgaSVkUsSeeoHvXyVpUg0XxfZSz/dsb+Nn/AOASAn+VfbWk30OoaZbXEDhkeMEEfSgChrvhXSdfsJLW9soJFYcFkBKn1GQfQV8f+NfDp8LeKLvTMkxo5MZJ5KbiAf0r7ZlkWKNnc4VQST7V8e/FnWoNc8e3c9ucxw5gDeuHY5/WgD3H4M6Bof8AwiFtqdtZxG8YBJZWRd27YpODjOOT+dbXiv4VeHfFcpnuIDBcHrLBtUt9TtJP/wBYVV+C1kbH4dWu4/69vOH0ZErvLm9trOMyXMqxoP4moA8itv2edBjnDT3dy6D+FZB/8TXp2g+G9M8N2YtdMtY4Y++1QC31wBTbbxZoN5N5VvqlvLJ/dVsmtgMGAI70ALRRRQB5T8fv+RBb/fX/ANDSuW/Z3mS3tNYlkbaiqhJP1aup+P3/ACILf76/+hpXzvpmravY6BfW1mCtnOAJmGOzAj9aAPQPin8Rrzxbqp0LRWLWHCnYDmVvmz3xjBHYHivSPhX8L4PDFqmpajGH1KQZwwU+X04Hvwe/euN/Z/0TRrx7vUbjEmpQyFUjbB2JtGGHGRncw69q+hui0AeMfGX4lXGhj+xNHl2Xbj97IAcoMdOvX5ge/SvJfDPw68SeOpnvlVlikOWuZNpyc46ZB7H8qq+J1fXviXdxu+1riZVLHthAP6V9e6Lp1vpmkW1pboEjROAPfk/qaAPmfU/hD4s8IoNW0+bz3g+fdEFQrjB7t7fpXB+JvEF94j1NbrUQv2mKJYGIBBO31yTz1r7idFdCrDIIwR618g/GHSbbSPiBdRWqBFmTz2AH8TMxNAHt9v4am8XfAfT9Et5lhkuLG0xIy7gNvlt0yP7tfOHiXwzN4b8SPos06yyIwXeq4HUjpn2r61+G/wDyTrQf+vGD/wBFrXzj8Vv+SrXH/XUf+hmgD034UfDG+8Oahb65LexzQzxBtgjwRwe+feuN/aD/AORus/8Ark38xX0P4WH/ABS2mf8AXuv8q+eP2g/+Rus/+uTfzFAHp/g3xFZeGPg5pmoXjgLHbsVXuxyxx+leK39zrnxc8aLFGGMHmYQAYWKMlVJ5PXGDjNczq2satc6LptldkrZwowgXjBGf8a+n/hNoWiaX4Tt59JkFx524vOSCWO5h1AHTp+FAGt4T8Jab4J0DyreMKVTfNKQNzYyeSB7mvAfiX8S9U8R65PpGmSNHYxyNCFQYMrBseuMcD0r6F8d3L2ng3UZEOD5RX8wRXzX8FtIh1bx/ALhQ0cKM4B/vAZB/SgCxoHwQ8R61p0d5Ky2ayKGVXAYkEZHRqS50Lxn8KLz7ZAS1ofvPxsfII5AbPvX1cqhVAAwBWdr2l2+r6PcWdygaKRcEGgD488CP5nj7THwBmRuB/uNX2qPuivivwJGYvH2mISCVkbkf7jV9qDoKAFpHUMpUjINLRQB8w/GD4bXek6rca5p8QexlJeTaeUOBknjudx61yXhP4l6/4RXyrS4Mlt/zxYLjqT1wT3NfY01vFcRNHKgdGBBB7ivGfiz8OvDtl4ZvdatLMQ3asp3KzHOWHqfrQB5h4k+MPiTxDaG1MotoW+8qbW3dPVfasnwj8Ptd8aSM1gkaxLnM0zELnB9AT2x+Nd/8F/AWh+JbCe+1S2E7xMpVSSAOW9CPQV9DWGmWemWqW1nAsUSABVGTwOO9AHy1a6p42+Et8ILlP9Fz9zjY/BHBI3dv0rA1nxH4k+IGuYUyyyuf3VvGQNoA6Z4z3PNe1/tDNJH4SsvKThroBzjPG1v/AK1c9+ztZ2Ekuo3EgQ3akqATyF+XBx9SaAPOdT+HPjHRLE31zYzJCoLMyv8AdGCcnp6V3Pwi+KF7a6tBoOrSNLBM2yJyFBRiRx245JzzX0ZcQwzQMkoUxkYINfFniMDTvH17/ZRyY7jdEU5+YgE+vcmgD7XRg6BhyDyKdVXTSzaZalupiXP5VaoA8p+P3/Igt/vr/wChpXEfA7RrXXtD1zT7yMPFKiAg/wC8T/QV6j8VvC2o+LvC39naZ5XnlgcykhRhlPYH0NY/wf8AAmseC1v11XyD5wXYYWY9CfVR60AeJ3MerfCfx6EVyRH8yng+YhyueQO+fyr6o8NeIbPxLokGo2bgpIASuRlT1wcE88iuc+JfgKHxpopSJVW/i5hdiQM84Bx/vHtXI/DHwX418E6i0d41rNpsv3kSRyUPHIyg9AMZoA8o+KuiXfh7x9dTY2RzFXgcd8IoP6mvoH4f/EjSfE+iwCS5jgvVBV4ZGUNwSBgZJ6Y/OtLxv4GsPGukm2uhsmXmOVTypwf8a+f9S+DPjLRbuQ6epmjz8jWzPuI98KKAPo/XfF2jaDp0t3d30K7FJVS4BY9gMke3518g+NfEb+KvE93qbKVRmKxg9dgYlc/ga7jR/g74y1u5jXV5pYbXI3+fJJuAzzgFSOn9K0/FPwI1eXVE/sEWiWawop853DM46nhT7UAezfDf/knWg/8AXhB/6LWvnH4rf8lWuP8ArqP/AEM19N+DdLudF8IaXpt1t8+2toon2ZIyqAHGQO4rx7x18JvEniHxzPq9kbQWzSAgSO4YgMT2Ujv60Ae0eFv+RW0z/r3X+VfPH7Qf/I3Wn/XJv5ivo3QrWWx0GytZgBJFEqNj1FeR/Fj4Z6/4x8QQXmmfZhFGhU+czA5OPRT6UAQReBo/F/wT0poUH2+3t2eE5xkgscdD1OK4z4XeOLjwT4ibRNTyLSSYRP0/dsWAzzjjkn+lfQPgPRLrQfBunaXfBPtFvGVfYSRncTxkD1rzr4n/AAguvEOrJqegeTFcP/rhIzAHAUDGAfQ0Aeo+ILVNb8LXcMRDCaBmT3O04r5M8IaxN4D8eLNdJ81vI1vMF7fNtY849DX0n8N9O8T6PpH9meIzDKYv9VNExORknByq+w79KwviR8ILfxVK2o6aywahjncxCvznng+p6UAd5o3ivR9csIruzvoWV1DFd4JXIzg4J5rlfiN8SdK8PaLPBbXUc9/IuEijdSRz1IznHB7V4bJ8LfiBpsvkW8NyVzjdbNJs/kK63wp8D9VvLv7Z4nm3xqDiLe5ZuO+QD1PY0AeY+AP+R60v/fb/ANAavtcdBXzf4a+C/ijSPFdnqU32IW8LklUdy2CpHdPf1r6QXoKAFooooAoazrFloWmT6hfTJFBCpYliBnAzgep4r5v+I3xjk8S2lzo9hahLFyP3pbJbB44K8dPXvW7+0N4huY57PRoXKwsGaUBuuAhH8zUXwc+F+m63pCa9q6GZZGIhiOVxhmB5B5+6O1AHFfDz4n3fgcNbC1We1lZd4LBSBk8/dJ/ir6c8KeLtN8W6Wl7YSqSQN8e7lDjoR1//AFV5/wDET4Q6Nd6HNd6VELW8hXIPLAjIzxkDpmvLPgp4iudK8dWlgHY216WEiluBtjcjj60AfRnj3wwvivwvcafwJSMxt6H1/LNfKmm6r4h+HGvsUSS3uBw6SIQGH/Ah/SvtKuf1/wAFaF4ljKalZJJn+JflP5jB70AfPmsfHvXtS017S3tEtGcYaQSBzjB7bBj/AOtVH4WeCtQ8VeKYtVuopBZRSea8rocSHI4B6Hqe/avarL4IeDLK5WdbF2ZegM0hH6sa72x06102BYbSBIox2RQKAJ4kEcSoBgKABT6KKACiiigAooooAKKKKACiiigAooooAKKKKACiiigAooooAKKKKACiiigAooooA+ef2h9DuTfWWrxxloMMJGA6HCAfyNWfgx8SdL07RY9A1SYwyREmJyrENlmJ6A+o617Tr+g2PiPSJ9Ov4VkhlUryBkHGMjPQivnjxT8B9bsrmSTRP9MgJJWPciFR2GWYZ/8ArUAejfEX4qaJpmhTW1lcC5vJl2qiqw4yM84x0z37V478F9BudU8fWV2iH7NaF2kbHHMbgfrVvQfgZ4p1C5Ualb/YIdw3MXjkyO/3Xr6G8G+CtO8G6UtpZxqZSB5su0Zc49evXP50AdNRRRQAUUUUAFFFFABRRRQAUUUUAFFFFABRRRQAUUUUAFFFFABRRRQAUUUUAFFFFABRRRQAUUUUAFGKKKADAooooAKKKKACiiigAooooAKKKKACiiigAooooAKKKKACiiigAooooAKKKKACiiigAooooAKKKKAP/9n/4gKwSUNDX1BST0ZJTEUAAQEAAAKgbGNtcwQwAABtbnRyUkdCIFhZWiAH5AAIAAwAEwAiAAphY3NwQVBQTAAAAAAAAAAAAAAAAAAAAAAAAAAAAAAAAAAA9tYAAQAAAADTLWxjbXMAAAAAAAAAAAAAAAAAAAAAAAAAAAAAAAAAAAAAAAAAAAAAAAAAAAAAAAAAAAAAAA1kZXNjAAABIAAAAEBjcHJ0AAABYAAAADZ3dHB0AAABmAAAABRjaGFkAAABrAAAACxyWFlaAAAB2AAAABRiWFlaAAAB7AAAABRnWFlaAAACAAAAABRyVFJDAAACFAAAACBnVFJDAAACFAAAACBiVFJDAAACFAAAACBjaHJtAAACNAAAACRkbW5kAAACWAAAACRkbWRkAAACfAAAACRtbHVjAAAAAAAAAAEAAAAMZW5VUwAAACQAAAAcAEcASQBNAFAAIABiAHUAaQBsAHQALQBpAG4AIABzAFIARwBCbWx1YwAAAAAAAAABAAAADGVuVVMAAAAaAAAAHABQAHUAYgBsAGkAYwAgAEQAbwBtAGEAaQBuAABYWVogAAAAAAAA9tYAAQAAAADTLXNmMzIAAAAAAAEMQgAABd7///MlAAAHkwAA/ZD///uh///9ogAAA9wAAMBuWFlaIAAAAAAAAG+gAAA49QAAA5BYWVogAAAAAAAAJJ8AAA+EAAC2xFhZWiAAAAAAAABilwAAt4cAABjZcGFyYQAAAAAAAwAAAAJmZgAA8qcAAA1ZAAAT0AAACltjaHJtAAAAAAADAAAAAKPXAABUfAAATM0AAJmaAAAmZwAAD1xtbHVjAAAAAAAAAAEAAAAMZW5VUwAAAAgAAAAcAEcASQBNAFBtbHVjAAAAAAAAAAEAAAAMZW5VUwAAAAgAAAAcAHMAUgBHAEL/2wBDAAMCAgMCAgMDAwMEAwMEBQgFBQQEBQoHBwYIDAoMDAsKCwsNDhIQDQ4RDgsLEBYQERMUFRUVDA8XGBYUGBIUFRT/2wBDAQMEBAUEBQkFBQkUDQsNFBQUFBQUFBQUFBQUFBQUFBQUFBQUFBQUFBQUFBQUFBQUFBQUFBQUFBQUFBQUFBQUFBT//gA8Q1JFQVRPUjogZ2QtanBlZyB2MS4wICh1c2luZyBJSkcgSlBFRyB2NjIpLCBxdWFsaXR5ID0gNzAKAP/CABEIAEYAmwMBEQACEQEDEQH/xAAcAAEAAgMBAQEAAAAAAAAAAAAABwgDBQYEAQL/xAAUAQEAAAAAAAAAAAAAAAAAAAAA/9oADAMBAAIQAxAAAAG1BwpXcsadqAAAAAAAAVRJXItLJmA3oAAAAAABpinxcEp4fsuKDKe8AHGHvOkAABVw4E9ZiPUXIIjMxvDlTyG0IEOoJoOkIcOyJcBRsu6UfLkmA6UhkrMW5ItNoeo0BGpJRz5ZgqaXTBERVsnchU3pcIjg4g3JFR9JhNKaAxG/OdObLpAjoqsWtIENeXFM4AAAAAAKqkhHBFpQAAAAAAADXEOkyHvAAAAAAAB//8QAJxAAAgIDAAAEBgMAAAAAAAAABQYDBAECBxATF0AAFBUWIDYRMDf/2gAIAQEAAQUC+G5rrqQ31VZP4U2mu2DPY9ugk+YkcF3K1xCCXHwQLUxMY46PL+wLCKpulGh0tuhDBdUJQEjZuotLcrSc5vC7uCQwiTqia1G9ASq/hlxD/VdWIbsU/LpL1c0I+mDNiIJ0Ri8nUA0IN3agydKJ14NKtfrf6Ylk64fnis4xtmD/AFcWGt1uwCZ6JPoVXRQ5aQG1zNb/AG1gf6AAiUY6oIXp2wfmen0oYQO+Hm6g+rZnjxDDerkOqEzo8NGKZBhvw63+mVbMxjLFrouJXIF2nKK60u0dl9G1xty/iWmMjmK/aF9K5KLp38dIxsZf4QA6vRpCoQnXPB45/C2a6qxvc3Q44PiEpKx97F3dU+wLom79SF9SqzXFHVJywc5TLls8vj7DBy+4ylmN5GpdOevzfjlCzQHwDLfrATDX0Ft6GrWT+lbqJ/yl8Kah6H4OrhEojsFGWMmmNsTcMMq51KP6hWbohOCHWtB/d22nLmSTo4DK9xGlNrr7G+PrlKno8C+apUYB1b2H/8QAFBEBAAAAAAAAAAAAAAAAAAAAcP/aAAgBAwEBPwE0/8QAFBEBAAAAAAAAAAAAAAAAAAAAcP/aAAgBAgEBPwE0/8QAPhAAAQMCAwQFBwoHAQAAAAAAAQIDBAARBRITFCExUSIyQWFxECNAQoGRsQYVIDNDcnOhwdEwUlNikrPw8f/aAAgBAQAGPwKtodTqurOVpoesf2rbDhrWw346K8v+VCUyNNaTlcaPqH0LCn8pLFlp9u7/AL2UVbVH2cs5dmuM3Dq5axV6x0DkRfmrf+/50HJkpqMg8C6q16OxTGZOXiG13I9AXEmNB1lfZy76Xges9siUama4zdW9qRFiNBlhscBUx6VJU1Fb6XR4hN+ikVBxDDJbhSpVhqdYEeHEGoktIsl9pLoHiL0ZEx5LDINs6uFIkxnA8wvqrTwP0W8NE1K5i1ZA2gFW/wAeFfNwlo269tD1uF/pnBMJWptwWS6431yo+qmtuujabZsut53/AN9tfM7TW14gpWRtb3XTzB5+2kT4zO0FxPnNFOonwUBUfb2FRIbXFWmUISO21+JptlsZUNpCUjuFP/io+NQZcpwNMNtqJJ+8acXGhSWWEfbPWAJ5DfS4zSHJzqDZRb3JB5Xp95bLzTrVjobrr323GkYuhh8IkrUw2ndmSqyt53/20hqVFU/iD7gDD26zdL/EV/ppqDpPTJa/sowBI5dtJm4gTGB+zO9V+XjVjAkpa/nuL+6mMMjIdeU9bK8LZOrfnfyuPYgbNpmKWVK7Aq+U/mK1c6dK18991qRKjuJajqlhQcJsCBx9/wCtBc2W1GSeGc8fCiIM1qQocUpPS93kf/FR8awHB8RdMHCh1VD1rk9L9O6pqYCdBLLBS3k9XsvTmJvNofkqdKElQvkApeJJZS1KYUnpoFswJtY++jcX83I+KqxIkbw6n4ViMqE3qSW8xSOXmt59g31Ixh57a8UzkKz8Wu/286wzDHXMsbzaLfeVvNCIiEwI9raeQWNMxI/1KHrpHK6L2/PypfbWI05AsHLblDkaPyc2kaqU5smsdK1r0tuY8t2arfrtmwR3AU43LlOmNGb436ZF9wF+FQcRwuQ4lKl7s56SVD9KiS7W12ku28RenmmGVvuFxHQbTmPGsPaU0WMTjIUWtROU9Y9E+NScExqJJZcS2Ww662oZ0cOPMVIYMIzIK1XvY5Fd4PZSlpwxyNh7FlaaEqJcVe3t40ph1lxt/Tf82tJCuKuysRTJjuxyp1JAdQU33d9LkmI9spWrzxbOT6rnSMRwmK9Kw6R12GElVh2p/aoeO4UlZlNpF27ZV24g25ihEOCF2fa2bKoe9NQ5OIxnlOKc1HXshKBdPPh3eVLpRrSXTlaa5957qPyq2E7021NE6eW1vd30Xko0n2zlda5H9qdxLA21PxnCTlbTnsD6pTypheKtLhw2uJU3phI7coO8mm2kDKhCQlI7v4+GSsuZhIU2e48f+8KLuukqLWXZLdO9urasTlEWYXkbSeZF7/H0JcaU0l5hfWQqtW8nT/o6nR+F6RHjNJZZQLJQn0H/xAAnEAEAAQQBAwQCAwEAAAAAAAABEQAhMUFRYXGBEJGhwUDRIDDw4f/aAAgBAQABPyGp5pA4Y+dDbUHsCycXxPWkpymy93Zw/hSQHN0TUeQpOUiPufOsU8oQ2gTfYFGpJAM3Sc0XNcK7gz+Bm9MrK0HT1pcWSuNl6I3GKtogXp5V2vNGylhw4LY6vfmnGMVGWhsAdKaA1GgvtRMWPCXFBLldIY+v44EuCOKCHlpU2Errj6L/AM0YV0AjayXLyxVj6jd/eIoDERnY5gMSIzhF5o4sAGu3YptZktw1LikI1ZC946+KMaIuggPRPxVhmw5XRVg6KHSgpafmJ0GzJl7FEVqRMkZUMTMMMDUNzzYkwIlYaevkBWlW7IvIV/ocqcsNuFcGRd4o4SkROzEM9lutBnli7Hu+6sqJfJlwJhIyerrxSUt2CbxUghonenij/wBQDF09rTiXD3tZfFLkLMKDmV/VMycSSxu3Vc8e6o3Zjk+S8zQSYcRhicLLfiKFV3BRqgzt4qAyDElAYWDUuX1gsUp0Q7ueFS1g7Y+T+jmmHMFKAxXVIPBRxDfMHXmrd965j8dZ6zYz6X+zDrrQmuC+WMdeKyZorrRZO/xUDOpU7FfIZ7UKWgMt0yRKJs/dAFDPNRw+aXFWLXaxepr8MSyJNws8w0WSKqxsP3WeattDcxgLM0iR4pjnThwEWmN1iCFdVFn1ehguveaTXwtErkK53sHJmsZtSwhc6V4McvxV4WvlLGWGW2faoFFl6eYfsqAfCMHYY4SZWx6lwQUwIz0FvcrdMj7ATNht5rPkzTxJ1furj/QTJTXZYTjVK5CFrJshzRxxk0CA/vC6UulQHkGm+oD0OxqcUjeYGJz2Q9/winrAbP8A3rQVzlp+X2VF+cMAfg//2gAMAwEAAgADAAAAEBIAAAAAAAAAAAAAAAAAAABIBIAAIAABBAIIABJIIBAIBBJAJBAABJBIAIJAABABAAAAAAAAAAAAAAAAABBAAAAAAAAP/8QAFBEBAAAAAAAAAAAAAAAAAAAAcP/aAAgBAwEBPxA0/8QAFBEBAAAAAAAAAAAAAAAAAAAAcP/aAAgBAgEBPxA0/8QAIxABAQEAAgICAgMBAQAAAAAAAREhADFBUWFxEIEgQJHw8f/aAAgBAQABPxDgpVzm0bDJsGUAVBl0tkryj6z5ePHJwsMijI7RsCnYIh/RrkpGPSnw5vt65cXJWQwb/Qwd2bwDCNeJR80PpyeLBf0BVfBeOsogY9IsHyn9AfKCtB6LT8DeMKAIfcnWqrU+d42mm9LtbXapq8L8EYVK+Ylg6KLRNnGCQ3CIiR0jacAIEESQfrhUjLIlAoPbnKswEiiSg9o/X8OuATfDwWvlI0Bzg1uIwQySdfLr+YkIfYJI1S+iBI1Pb09f2f8AtfPKYrpJKSBLXs+B0g9D8ICgCAzyHFKyiaC2SAGghYvOpwdBAvoA5/xfTmksTlwF2qAaqBx0D/e71A1hDK1Di7cF0Slg0aAiWk5uGsYWWLakoAY8iwNgQekFGjpnJEReq7RS8hmZvMc0muMtNDz50FZFlKcNreYHUItpEVgvB3pxde0x+h/vmZ0/3tAgCsKIfP5m02qnJr0NXg+PEgxdEIvfMbbOGDOUIKkIp+58s5R0uWLWN/Sefd1pIkifMn4/4vpweKqDYjrSF5FPIqZbNXm9otqq63m1GgZ8ARTI2td8FhFm1LZMV0qMWyjzRMSaXzyfzLH0D44JtzuZ+4CXnlRdY7Te3Xr4BTEtbjgLVGeoXyXvlypMCI7GntWq6vHaBtm7r80LsC7+bwyGDVDNxWO04M4hDgKSkY6DN3xztNgwAyt7Sa+OUo5r0GM9tCnQNoTOExQgCuCHhFSBX5sUT/gMcAVkyC0GoDXOBECiLEUAO3XhWukSoICGHHzQaTiKulcgB8IBrgmDxFJneIIxKTBBSOwynWhkUBCbSd8PnyahIApcpxXlawXZVH2d53zfCBuBBsCjMH0G341CmwdprBXNIn7FM3qFu2LAvrmDC+JrYNwIRDn5kgMDCsNBamqGWk4Zv1lXUi/04GcFhUKt7GoukD1XA96J5NBEeA1Go5q1WoYDAqhNQI9EIQygfQB+HeTiX+E/ML1/DVLAbyJp3Hy4KkgvYV4mvLnbORWyKKze41+fL/R0UZh5BPIHQREETlQ3l4PXi/7+ee1warftWquqq/0f/9k=;" parent="1" vertex="1">
                    <mxGeometry x="-521" y="254" width="70.86" height="32" as="geometry"/>
                </mxCell>
                <mxCell id="55" value="&lt;meta http-equiv=&quot;content-type&quot; content=&quot;text/html; charset=utf-8&quot;&gt;&lt;img src=&quot;https://ih1.redbubble.net/image.582142650.2604/st,small,507x507-pad,600x600,f8f8f8.u13.jpg&quot; alt=&quot;https://ih1.redbubble.net/image.582142650.2604/st,small,507x507-pad,600x600,f8f8f8.u13.jpg&quot;&gt;" style="text;whiteSpace=wrap;html=1;" parent="1" vertex="1">
                    <mxGeometry x="-364" y="270.5" width="30" height="37" as="geometry"/>
                </mxCell>
                <mxCell id="56" value="" style="endArrow=classic;html=1;labelBackgroundColor=#333333;strokeColor=#1A1A1A;strokeWidth=2;fontFamily=Roboto;fontSize=13;fontColor=#000000;" parent="1" edge="1">
                    <mxGeometry width="50" height="50" relative="1" as="geometry">
                        <mxPoint x="-909" y="321" as="sourcePoint"/>
                        <mxPoint x="-788" y="320.5" as="targetPoint"/>
                    </mxGeometry>
                </mxCell>
                <mxCell id="57" value="POST CSV file" style="text;html=1;align=center;verticalAlign=middle;resizable=0;points=[];autosize=1;fontSize=13;fontFamily=Roboto;fontColor=#000000;" parent="1" vertex="1">
                    <mxGeometry x="-891.5" y="289" width="91" height="20" as="geometry"/>
                </mxCell>
                <mxCell id="58" value="&lt;meta http-equiv=&quot;content-type&quot; content=&quot;text/html; charset=utf-8&quot;&gt;&lt;img src=&quot;https://ih1.redbubble.net/image.582142650.2604/st,small,507x507-pad,600x600,f8f8f8.u13.jpg&quot; alt=&quot;https://ih1.redbubble.net/image.582142650.2604/st,small,507x507-pad,600x600,f8f8f8.u13.jpg&quot;&gt;" style="text;whiteSpace=wrap;html=1;" parent="1" vertex="1">
                    <mxGeometry x="-371" y="395" width="30" height="37" as="geometry"/>
                </mxCell>
                <mxCell id="60" value="&lt;span style=&quot;color: rgb(0 , 0 , 0)&quot;&gt;analytic&lt;/span&gt;-requests" style="strokeWidth=1;outlineConnect=0;dashed=0;align=center;html=1;fontSize=13;shape=mxgraph.eip.messageChannel;verticalLabelPosition=bottom;labelBackgroundColor=none;verticalAlign=middle;fontColor=#1A1A1A;labelBorderColor=none;fillColor=#FFFFFF;fontFamily=Roboto;" parent="1" vertex="1">
                    <mxGeometry x="-563" y="409" width="100" height="28" as="geometry"/>
                </mxCell>
                <mxCell id="63" style="edgeStyle=orthogonalEdgeStyle;rounded=0;orthogonalLoop=1;jettySize=auto;html=1;fontColor=#1A1A1A;labelBackgroundColor=#FFFFFF;labelBorderColor=none;strokeColor=#1A1A1A;strokeWidth=2;fontFamily=Roboto;fontSize=13;exitX=1;exitY=0.5;exitDx=-2.7;exitDy=0;entryX=0;entryY=0.5;entryDx=0;entryDy=0;exitPerimeter=0;" parent="1" source="60" target="20" edge="1">
                    <mxGeometry relative="1" as="geometry">
                        <mxPoint x="-394" y="314" as="targetPoint"/>
                        <mxPoint x="-449.6999999999998" y="315" as="sourcePoint"/>
                    </mxGeometry>
                </mxCell>
                <mxCell id="65" value="" style="endArrow=classic;html=1;labelBackgroundColor=#333333;strokeColor=#1A1A1A;strokeWidth=2;fontFamily=Roboto;fontSize=13;fontColor=#000000;exitX=1.008;exitY=0.578;exitDx=0;exitDy=0;exitPerimeter=0;entryX=-0.014;entryY=0.4;entryDx=0;entryDy=0;entryPerimeter=0;" parent="1" edge="1" target="9">
                    <mxGeometry width="50" height="50" relative="1" as="geometry">
                        <mxPoint x="-910.04" y="370.85400000000004" as="sourcePoint"/>
                        <mxPoint x="-786" y="371.5" as="targetPoint"/>
                    </mxGeometry>
                </mxCell>
                <mxCell id="66" value="POST Analytic&lt;br&gt;request" style="text;html=1;align=center;verticalAlign=middle;resizable=0;points=[];autosize=1;fontSize=13;fontFamily=Roboto;fontColor=#000000;" parent="1" vertex="1">
                    <mxGeometry x="-889.5" y="332" width="92" height="36" as="geometry"/>
                </mxCell>
                <mxCell id="69" style="edgeStyle=orthogonalEdgeStyle;rounded=0;orthogonalLoop=1;jettySize=auto;html=1;entryX=0;entryY=0.5;entryDx=0;entryDy=0;fontColor=#1A1A1A;exitX=0.5;exitY=1;exitDx=0;exitDy=0;labelBackgroundColor=#FFFFFF;labelBorderColor=none;strokeColor=#1A1A1A;strokeWidth=2;fontFamily=Roboto;fontSize=13;" parent="1" source="20" target="95" edge="1">
                    <mxGeometry relative="1" as="geometry">
                        <mxPoint x="-272" y="433.75" as="sourcePoint"/>
                        <mxPoint x="-206" y="487" as="targetPoint"/>
                    </mxGeometry>
                </mxCell>
                <mxCell id="70" value="Web UI" style="rounded=0;whiteSpace=wrap;html=1;fontColor=#1A1A1A;labelBackgroundColor=none;labelBorderColor=none;fillColor=#FFFFFF;strokeColor=#1A1A1A;fontFamily=Roboto;FType=g;fontSize=13;verticalAlign=bottom;" parent="1" vertex="1">
                    <mxGeometry x="-1031" y="251.5" width="120" height="293" as="geometry"/>
                </mxCell>
                <mxCell id="71" value="&lt;meta http-equiv=&quot;content-type&quot; content=&quot;text/html; charset=utf-8&quot;&gt;&lt;img class=&quot;hero-logo&quot; src=&quot;https://vuejs.org/images/logo.png&quot; alt=&quot;vue logo&quot;&gt;" style="text;whiteSpace=wrap;html=1;fontSize=13;fontFamily=Roboto;fontColor=#1A1A1A;" parent="1" vertex="1">
                    <mxGeometry x="-937" y="256" width="20" height="30" as="geometry"/>
                </mxCell>
                <mxCell id="72" value="" style="endArrow=classic;html=1;labelBackgroundColor=#333333;strokeColor=#1A1A1A;strokeWidth=2;fontFamily=Roboto;fontSize=13;fontColor=#000000;" parent="1" edge="1">
                    <mxGeometry width="50" height="50" relative="1" as="geometry">
                        <mxPoint x="-909" y="518" as="sourcePoint"/>
                        <mxPoint x="-788" y="518" as="targetPoint"/>
                    </mxGeometry>
                </mxCell>
                <mxCell id="73" value="GET Predictions" style="text;html=1;align=center;verticalAlign=middle;resizable=0;points=[];autosize=1;fontSize=13;fontFamily=Roboto;fontColor=#000000;" parent="1" vertex="1">
                    <mxGeometry x="-894.5" y="488" width="103" height="20" as="geometry"/>
                </mxCell>
                <mxCell id="74" value="" style="endArrow=none;dashed=1;html=1;strokeColor=#333333;entryX=0.99;entryY=0.396;entryDx=0;entryDy=0;entryPerimeter=0;" edge="1" parent="1" target="9">
                    <mxGeometry width="50" height="50" relative="1" as="geometry">
                        <mxPoint x="-786" y="370" as="sourcePoint"/>
                        <mxPoint x="-664" y="369" as="targetPoint"/>
                    </mxGeometry>
                </mxCell>
                <mxCell id="79" value="" style="endArrow=none;dashed=1;html=1;strokeColor=#333333;entryX=0.995;entryY=0.178;entryDx=0;entryDy=0;entryPerimeter=0;exitX=-0.005;exitY=0.225;exitDx=0;exitDy=0;exitPerimeter=0;" edge="1" parent="1" source="9" target="9">
                    <mxGeometry width="50" height="50" relative="1" as="geometry">
                        <mxPoint x="-776" y="380" as="sourcePoint"/>
                        <mxPoint x="-657.2" y="380.028" as="targetPoint"/>
                    </mxGeometry>
                </mxCell>
                <mxCell id="80" value="" style="endArrow=none;dashed=1;html=1;strokeColor=#333333;entryX=0.995;entryY=0.172;entryDx=0;entryDy=0;entryPerimeter=0;" edge="1" parent="1" target="9">
                    <mxGeometry width="50" height="50" relative="1" as="geometry">
                        <mxPoint x="-787" y="280" as="sourcePoint"/>
                        <mxPoint x="-647.2" y="390.028" as="targetPoint"/>
                    </mxGeometry>
                </mxCell>
                <mxCell id="81" value="" style="endArrow=none;dashed=1;html=1;strokeColor=#333333;exitX=-0.014;exitY=0.627;exitDx=0;exitDy=0;exitPerimeter=0;" edge="1" parent="1" source="9">
                    <mxGeometry width="50" height="50" relative="1" as="geometry">
                        <mxPoint x="-756" y="400" as="sourcePoint"/>
                        <mxPoint x="-665" y="511" as="targetPoint"/>
                    </mxGeometry>
                </mxCell>
                <mxCell id="82" value="" style="endArrow=none;dashed=1;html=1;strokeColor=#333333;exitX=-0.01;exitY=0.765;exitDx=0;exitDy=0;exitPerimeter=0;" edge="1" parent="1" source="9">
                    <mxGeometry width="50" height="50" relative="1" as="geometry">
                        <mxPoint x="-746" y="410" as="sourcePoint"/>
                        <mxPoint x="-665" y="512" as="targetPoint"/>
                    </mxGeometry>
                </mxCell>
                <mxCell id="83" value="" style="endArrow=none;dashed=1;html=1;strokeColor=#333333;exitX=-0.014;exitY=0.9;exitDx=0;exitDy=0;exitPerimeter=0;" edge="1" parent="1" source="9">
                    <mxGeometry width="50" height="50" relative="1" as="geometry">
                        <mxPoint x="-736" y="420" as="sourcePoint"/>
                        <mxPoint x="-666" y="511" as="targetPoint"/>
                    </mxGeometry>
                </mxCell>
                <mxCell id="87" value="&lt;span style=&quot;color: rgb(0 , 0 , 0) ; font-size: 13px&quot;&gt;events_by_*&lt;/span&gt;" style="rounded=0;whiteSpace=wrap;html=1;labelBackgroundColor=none;fontFamily=Roboto;fontSize=11;fontColor=#1A1A1A;fillColor=#FFFFFF;strokeColor=#1A1A1A;verticalAlign=top;" vertex="1" parent="1">
                    <mxGeometry x="-200" y="283" width="110" height="60" as="geometry"/>
                </mxCell>
                <mxCell id="94" value="&lt;span style=&quot;color: rgb(0 , 0 , 0) ; font-size: 13px&quot;&gt;aggregations&lt;/span&gt;" style="rounded=0;whiteSpace=wrap;html=1;labelBackgroundColor=none;fontFamily=Roboto;fontSize=11;fontColor=#1A1A1A;fillColor=#FFFFFF;strokeColor=#1A1A1A;verticalAlign=top;" vertex="1" parent="1">
                    <mxGeometry x="-200" y="394" width="110" height="60" as="geometry"/>
                </mxCell>
                <mxCell id="95" value="&lt;span style=&quot;color: rgb(0 , 0 , 0) ; font-size: 13px&quot;&gt;predictions&lt;/span&gt;" style="rounded=0;whiteSpace=wrap;html=1;labelBackgroundColor=none;fontFamily=Roboto;fontSize=11;fontColor=#1A1A1A;fillColor=#FFFFFF;strokeColor=#1A1A1A;verticalAlign=top;" vertex="1" parent="1">
                    <mxGeometry x="-200" y="463" width="110" height="60" as="geometry"/>
                </mxCell>
            </root>
        </mxGraphModel>
    </diagram>
</mxfile>